{
    "asset" : {
        "generator" : "Khronos glTF Blender I/O v1.7.33",
        "version" : "2.0"
    },
    "scene" : 0,
    "scenes" : [
        {
            "name" : "Scene",
            "nodes" : [
                0
            ]
        }
    ],
    "nodes" : [
        {
            "mesh" : 0,
            "name" : "uploads_files_3002537_Blessed+Scepter",
            "scale" : [
                6.105919361114502,
                6.105919361114502,
                6.105919361114502
            ]
        }
    ],
    "materials" : [
        {
            "doubleSided" : true,
            "name" : "Default OBJ",
            "pbrMetallicRoughness" : {
                "baseColorTexture" : {
                    "index" : 0
                },
                "metallicFactor" : 0,
                "roughnessFactor" : 0.5
            }
        }
    ],
    "meshes" : [
        {
            "name" : "uploads_files_3002537_Blessed+Scepter",
            "primitives" : [
                {
                    "attributes" : {
                        "POSITION" : 0,
                        "NORMAL" : 1,
                        "TEXCOORD_0" : 2
                    },
                    "indices" : 3,
                    "material" : 0
                }
            ]
        }
    ],
    "textures" : [
        {
            "sampler" : 0,
            "source" : 0
        }
    ],
    "images" : [
        {
            "mimeType" : "image/png",
            "name" : "uploads_files_3002537_Blessed+Scepter+1",
            "uri" : "uploads_files_3002537_BlessedScepter1.png"
        }
    ],
    "accessors" : [
        {
            "bufferView" : 0,
            "componentType" : 5126,
            "count" : 2203,
            "max" : [
                0.5294713377952576,
                1.6710152626037598,
                0.13196684420108795
            ],
            "min" : [
                -0.5294713377952576,
                -1.0663001537322998,
                -0.13196684420108795
            ],
            "type" : "VEC3"
        },
        {
            "bufferView" : 1,
            "componentType" : 5126,
            "count" : 2203,
            "type" : "VEC3"
        },
        {
            "bufferView" : 2,
            "componentType" : 5126,
            "count" : 2203,
            "type" : "VEC2"
        },
        {
            "bufferView" : 3,
            "componentType" : 5123,
            "count" : 7893,
            "type" : "SCALAR"
        }
    ],
    "bufferViews" : [
        {
            "buffer" : 0,
            "byteLength" : 26436,
            "byteOffset" : 0
        },
        {
            "buffer" : 0,
            "byteLength" : 26436,
            "byteOffset" : 26436
        },
        {
            "buffer" : 0,
            "byteLength" : 17624,
            "byteOffset" : 52872
        },
        {
            "buffer" : 0,
            "byteLength" : 15786,
            "byteOffset" : 70496
        }
    ],
    "samplers" : [
        {
            "magFilter" : 9729,
            "minFilter" : 9987
        }
    ],
    "buffers" : [
        {
            "byteLength" : 86284,
            "uri" : "baston.bin"
        }
    ]
}
