{
    "asset" : {
        "generator" : "Khronos glTF Blender I/O v1.7.33",
        "version" : "2.0"
    },
    "scene" : 0,
    "scenes" : [
        {
            "name" : "Scene",
            "nodes" : [
                0,
                1
            ]
        }
    ],
    "nodes" : [
        {
            "mesh" : 0,
            "name" : "Box001",
            "scale" : [
                68.49557495117188,
                68.49557495117188,
                68.49557495117188
            ],
            "translation" : [
                -0.018752621486783028,
                0,
                -0.0004331029485911131
            ]
        },
        {
            "mesh" : 1,
            "name" : "Plane001",
            "rotation" : [
                0.7071068286895752,
                0,
                0,
                0.7071067094802856
            ],
            "scale" : [
                0.005736895836889744,
                0.009999999776482582,
                0.005736895836889744
            ],
            "translation" : [
                0,
                0.011390820145606995,
                -0.0012363174464553595
            ]
        }
    ],
    "materials" : [
        {
            "doubleSided" : true,
            "name" : "Material #2",
            "pbrMetallicRoughness" : {
                "baseColorFactor" : [
                    0.28571876883506775,
                    0.07912630587816238,
                    0.5879999995231628,
                    1
                ],
                "roughnessFactor" : 0.09545454382896423
            }
        },
        {
            "alphaMode" : "BLEND",
            "doubleSided" : true,
            "name" : "01 - Default",
            "pbrMetallicRoughness" : {
                "baseColorTexture" : {
                    "index" : 0
                },
                "roughnessFactor" : 0.858578622341156
            }
        }
    ],
    "meshes" : [
        {
            "name" : "Mesh",
            "primitives" : [
                {
                    "attributes" : {
                        "POSITION" : 0,
                        "NORMAL" : 1,
                        "TEXCOORD_0" : 2
                    },
                    "indices" : 3,
                    "material" : 0
                }
            ]
        },
        {
            "name" : "Mesh.001",
            "primitives" : [
                {
                    "attributes" : {
                        "POSITION" : 4,
                        "NORMAL" : 5,
                        "TEXCOORD_0" : 6
                    },
                    "indices" : 7,
                    "material" : 1
                }
            ]
        }
    ],
    "textures" : [
        {
            "sampler" : 0,
            "source" : 0
        }
    ],
    "images" : [
        {
            "mimeType" : "image/png",
            "name" : "mofa",
            "uri" : "mofa.png"
        }
    ],
    "accessors" : [
        {
            "bufferView" : 0,
            "componentType" : 5126,
            "count" : 661,
            "max" : [
                0.07235348224639893,
                0.12239992618560791,
                -0.05666915699839592
            ],
            "min" : [
                -0.030811786651611328,
                -0.08240199089050293,
                -0.10055626183748245
            ],
            "type" : "VEC3"
        },
        {
            "bufferView" : 1,
            "componentType" : 5126,
            "count" : 661,
            "type" : "VEC3"
        },
        {
            "bufferView" : 2,
            "componentType" : 5126,
            "count" : 661,
            "type" : "VEC2"
        },
        {
            "bufferView" : 3,
            "componentType" : 5123,
            "count" : 768,
            "type" : "SCALAR"
        },
        {
            "bufferView" : 4,
            "componentType" : 5126,
            "count" : 4,
            "max" : [
                0.4740152359008789,
                0,
                0.4740152359008789
            ],
            "min" : [
                -0.4740152359008789,
                0,
                -0.4740152359008789
            ],
            "type" : "VEC3"
        },
        {
            "bufferView" : 5,
            "componentType" : 5126,
            "count" : 4,
            "type" : "VEC3"
        },
        {
            "bufferView" : 6,
            "componentType" : 5126,
            "count" : 4,
            "type" : "VEC2"
        },
        {
            "bufferView" : 7,
            "componentType" : 5123,
            "count" : 6,
            "type" : "SCALAR"
        }
    ],
    "bufferViews" : [
        {
            "buffer" : 0,
            "byteLength" : 7932,
            "byteOffset" : 0
        },
        {
            "buffer" : 0,
            "byteLength" : 7932,
            "byteOffset" : 7932
        },
        {
            "buffer" : 0,
            "byteLength" : 5288,
            "byteOffset" : 15864
        },
        {
            "buffer" : 0,
            "byteLength" : 1536,
            "byteOffset" : 21152
        },
        {
            "buffer" : 0,
            "byteLength" : 48,
            "byteOffset" : 22688
        },
        {
            "buffer" : 0,
            "byteLength" : 48,
            "byteOffset" : 22736
        },
        {
            "buffer" : 0,
            "byteLength" : 32,
            "byteOffset" : 22784
        },
        {
            "buffer" : 0,
            "byteLength" : 12,
            "byteOffset" : 22816
        }
    ],
    "samplers" : [
        {
            "magFilter" : 9729,
            "minFilter" : 9987
        }
    ],
    "buffers" : [
        {
            "byteLength" : 22828,
            "uri" : "piedrita.bin"
        }
    ]
}
